%TF.GenerationSoftware,KiCad,Pcbnew,(7.0.0)*%
%TF.CreationDate,2023-09-26T09:32:08+13:00*%
%TF.ProjectId,SENSOR BOARD,53454e53-4f52-4204-924f-4152442e6b69,rev?*%
%TF.SameCoordinates,Original*%
%TF.FileFunction,Legend,Bot*%
%TF.FilePolarity,Positive*%
%FSLAX46Y46*%
G04 Gerber Fmt 4.6, Leading zero omitted, Abs format (unit mm)*
G04 Created by KiCad (PCBNEW (7.0.0)) date 2023-09-26 09:32:08*
%MOMM*%
%LPD*%
G01*
G04 APERTURE LIST*
%ADD10C,0.150000*%
%ADD11C,0.127000*%
G04 APERTURE END LIST*
D10*
%TO.C,U1*%
X145790011Y-91286401D02*
X146602875Y-91286401D01*
X146602875Y-91286401D02*
X146698506Y-91334217D01*
X146698506Y-91334217D02*
X146746321Y-91382032D01*
X146746321Y-91382032D02*
X146794137Y-91477663D01*
X146794137Y-91477663D02*
X146794137Y-91668925D01*
X146794137Y-91668925D02*
X146746321Y-91764556D01*
X146746321Y-91764556D02*
X146698506Y-91812372D01*
X146698506Y-91812372D02*
X146602875Y-91860187D01*
X146602875Y-91860187D02*
X145790011Y-91860187D01*
X146794137Y-92864314D02*
X146794137Y-92290528D01*
X146794137Y-92577421D02*
X145790011Y-92577421D01*
X145790011Y-92577421D02*
X145933458Y-92481790D01*
X145933458Y-92481790D02*
X146029089Y-92386159D01*
X146029089Y-92386159D02*
X146076904Y-92290528D01*
D11*
X152800000Y-88665000D02*
X148050000Y-88665000D01*
X148050000Y-88665000D02*
X148050000Y-92645000D01*
X153950000Y-89815000D02*
X153950000Y-92645000D01*
X153950000Y-94985000D02*
X153950000Y-97415000D01*
X153950000Y-97415000D02*
X152400000Y-98965000D01*
X148050000Y-97415000D02*
X148050000Y-94985000D01*
X148050000Y-97415000D02*
X149600000Y-98965000D01*
X152400000Y-98965000D02*
X149600000Y-98965000D01*
%TD*%
M02*
