%TF.GenerationSoftware,KiCad,Pcbnew,7.0.7*%
%TF.CreationDate,2023-09-24T14:06:49+13:00*%
%TF.ProjectId,MAIN BOARD,4d41494e-2042-44f4-9152-442e6b696361,rev?*%
%TF.SameCoordinates,Original*%
%TF.FileFunction,Soldermask,Bot*%
%TF.FilePolarity,Negative*%
%FSLAX46Y46*%
G04 Gerber Fmt 4.6, Leading zero omitted, Abs format (unit mm)*
G04 Created by KiCad (PCBNEW 7.0.7) date 2023-09-24 14:06:49*
%MOMM*%
%LPD*%
G01*
G04 APERTURE LIST*
G04 Aperture macros list*
%AMRoundRect*
0 Rectangle with rounded corners*
0 $1 Rounding radius*
0 $2 $3 $4 $5 $6 $7 $8 $9 X,Y pos of 4 corners*
0 Add a 4 corners polygon primitive as box body*
4,1,4,$2,$3,$4,$5,$6,$7,$8,$9,$2,$3,0*
0 Add four circle primitives for the rounded corners*
1,1,$1+$1,$2,$3*
1,1,$1+$1,$4,$5*
1,1,$1+$1,$6,$7*
1,1,$1+$1,$8,$9*
0 Add four rect primitives between the rounded corners*
20,1,$1+$1,$2,$3,$4,$5,0*
20,1,$1+$1,$4,$5,$6,$7,0*
20,1,$1+$1,$6,$7,$8,$9,0*
20,1,$1+$1,$8,$9,$2,$3,0*%
G04 Aperture macros list end*
%ADD10C,2.000000*%
%ADD11R,1.700000X1.700000*%
%ADD12O,1.700000X1.700000*%
%ADD13R,1.800000X1.800000*%
%ADD14C,1.800000*%
%ADD15R,2.200000X2.200000*%
%ADD16O,2.200000X2.200000*%
%ADD17C,5.600000*%
%ADD18R,1.600000X1.600000*%
%ADD19O,1.600000X1.600000*%
%ADD20RoundRect,0.102000X0.825000X0.825000X-0.825000X0.825000X-0.825000X-0.825000X0.825000X-0.825000X0*%
%ADD21C,1.854000*%
%ADD22C,1.600000*%
%ADD23C,1.284000*%
%ADD24R,1.050000X1.500000*%
%ADD25O,1.050000X1.500000*%
G04 APERTURE END LIST*
D10*
%TO.C,C7*%
X157440000Y-122428000D03*
X152440000Y-122428000D03*
%TD*%
D11*
%TO.C,J6*%
X165359000Y-121920000D03*
D12*
X162819000Y-121920000D03*
%TD*%
D10*
%TO.C,C6*%
X162266000Y-94742000D03*
X157266000Y-94742000D03*
%TD*%
D13*
%TO.C,D3*%
X134620000Y-117343000D03*
D14*
X134620000Y-119883000D03*
%TD*%
D11*
%TO.C,J9*%
X132588000Y-84089000D03*
D12*
X132588000Y-86629000D03*
X132588000Y-89169000D03*
%TD*%
D10*
%TO.C,C2*%
X133948000Y-105124000D03*
X133948000Y-100124000D03*
%TD*%
D11*
%TO.C,J8*%
X171958000Y-114559000D03*
D12*
X171958000Y-112019000D03*
%TD*%
D15*
%TO.C,D1*%
X169164000Y-118364000D03*
D16*
X159004000Y-118364000D03*
%TD*%
D17*
%TO.C,REF\u002A\u002A*%
X130000000Y-75000000D03*
%TD*%
%TO.C,REF\u002A\u002A*%
X127000000Y-121000000D03*
%TD*%
D11*
%TO.C,J1*%
X163666000Y-91194000D03*
D12*
X166206000Y-91194000D03*
X168746000Y-91194000D03*
%TD*%
D15*
%TO.C,D5*%
X169418000Y-101600000D03*
D16*
X159258000Y-101600000D03*
%TD*%
D13*
%TO.C,D6*%
X167386000Y-95250000D03*
D14*
X167386000Y-97790000D03*
%TD*%
D10*
%TO.C,C1*%
X157266000Y-98044000D03*
X162266000Y-98044000D03*
%TD*%
D17*
%TO.C,REF\u002A\u002A*%
X175000000Y-121000000D03*
%TD*%
D18*
%TO.C,U1*%
X144880000Y-79520000D03*
D19*
X144880000Y-82060000D03*
X144880000Y-84600000D03*
X144880000Y-87140000D03*
X144880000Y-89680000D03*
X144880000Y-92220000D03*
X144880000Y-94760000D03*
X144880000Y-97300000D03*
X144880000Y-99840000D03*
X144880000Y-102380000D03*
X144880000Y-104920000D03*
X144880000Y-107460000D03*
X144880000Y-110000000D03*
X144880000Y-112540000D03*
X152500000Y-112540000D03*
X152500000Y-110000000D03*
X152500000Y-107460000D03*
X152500000Y-104920000D03*
X152500000Y-102380000D03*
X152500000Y-99840000D03*
X152500000Y-97300000D03*
X152500000Y-94760000D03*
X152500000Y-92220000D03*
X152500000Y-89680000D03*
X152500000Y-87140000D03*
X152500000Y-84600000D03*
X152500000Y-82060000D03*
X152500000Y-79520000D03*
%TD*%
D10*
%TO.C,C3*%
X140258000Y-113038000D03*
X135258000Y-113038000D03*
%TD*%
D20*
%TO.C,Q3*%
X167894000Y-107950000D03*
D21*
X167894000Y-105410000D03*
X160274000Y-105410000D03*
X160274000Y-107950000D03*
%TD*%
D11*
%TO.C,J5*%
X163666000Y-69096000D03*
D12*
X166206000Y-69096000D03*
X168746000Y-69096000D03*
%TD*%
D22*
%TO.C,R2*%
X136234000Y-76208000D03*
D19*
X136234000Y-68588000D03*
%TD*%
D10*
%TO.C,C5*%
X140258000Y-79256000D03*
X135258000Y-79256000D03*
%TD*%
%TO.C,C4*%
X135004000Y-96528000D03*
X140004000Y-96528000D03*
%TD*%
D13*
%TO.C,D2*%
X141478000Y-117851000D03*
D14*
X141478000Y-120391000D03*
%TD*%
D22*
%TO.C,R1*%
X136234000Y-89924000D03*
D19*
X136234000Y-82304000D03*
%TD*%
D23*
%TO.C,Y1*%
X138774000Y-102216000D03*
X138774000Y-107096000D03*
%TD*%
D11*
%TO.C,J3*%
X163666000Y-80018000D03*
D12*
X166206000Y-80018000D03*
X168746000Y-80018000D03*
%TD*%
D15*
%TO.C,D4*%
X140044000Y-92972000D03*
D16*
X140044000Y-82812000D03*
%TD*%
D11*
%TO.C,J7*%
X171958000Y-107955000D03*
D12*
X171958000Y-105415000D03*
%TD*%
D24*
%TO.C,U2*%
X151130000Y-118470000D03*
D25*
X152400000Y-118470000D03*
X153670000Y-118470000D03*
%TD*%
D11*
%TO.C,J0*%
X146648000Y-70366000D03*
D12*
X146648000Y-72906000D03*
X144108000Y-70366000D03*
X144108000Y-72906000D03*
X141568000Y-70366000D03*
X141568000Y-72906000D03*
%TD*%
D10*
%TO.C,C8*%
X147320000Y-117388000D03*
X147320000Y-122388000D03*
%TD*%
D17*
%TO.C,REF\u002A\u002A*%
X175000000Y-75000000D03*
%TD*%
D11*
%TO.C,J2*%
X163666000Y-85606000D03*
D12*
X166206000Y-85606000D03*
X168746000Y-85606000D03*
%TD*%
D14*
%TO.C,S2*%
X151780000Y-70656000D03*
X151780000Y-75156000D03*
X158280000Y-70656000D03*
X158280000Y-75156000D03*
%TD*%
D20*
%TO.C,Q4*%
X167894000Y-114554000D03*
D21*
X167894000Y-112014000D03*
X160274000Y-112014000D03*
X160274000Y-114554000D03*
%TD*%
D11*
%TO.C,J4*%
X163666000Y-74430000D03*
D12*
X166206000Y-74430000D03*
X168746000Y-74430000D03*
%TD*%
M02*
