%TF.GenerationSoftware,KiCad,Pcbnew,7.0.7*%
%TF.CreationDate,2023-09-24T14:06:49+13:00*%
%TF.ProjectId,MAIN BOARD,4d41494e-2042-44f4-9152-442e6b696361,rev?*%
%TF.SameCoordinates,Original*%
%TF.FileFunction,Copper,L1,Top*%
%TF.FilePolarity,Positive*%
%FSLAX46Y46*%
G04 Gerber Fmt 4.6, Leading zero omitted, Abs format (unit mm)*
G04 Created by KiCad (PCBNEW 7.0.7) date 2023-09-24 14:06:49*
%MOMM*%
%LPD*%
G01*
G04 APERTURE LIST*
G04 Aperture macros list*
%AMRoundRect*
0 Rectangle with rounded corners*
0 $1 Rounding radius*
0 $2 $3 $4 $5 $6 $7 $8 $9 X,Y pos of 4 corners*
0 Add a 4 corners polygon primitive as box body*
4,1,4,$2,$3,$4,$5,$6,$7,$8,$9,$2,$3,0*
0 Add four circle primitives for the rounded corners*
1,1,$1+$1,$2,$3*
1,1,$1+$1,$4,$5*
1,1,$1+$1,$6,$7*
1,1,$1+$1,$8,$9*
0 Add four rect primitives between the rounded corners*
20,1,$1+$1,$2,$3,$4,$5,0*
20,1,$1+$1,$4,$5,$6,$7,0*
20,1,$1+$1,$6,$7,$8,$9,0*
20,1,$1+$1,$8,$9,$2,$3,0*%
G04 Aperture macros list end*
%TA.AperFunction,ComponentPad*%
%ADD10C,2.000000*%
%TD*%
%TA.AperFunction,ComponentPad*%
%ADD11R,1.700000X1.700000*%
%TD*%
%TA.AperFunction,ComponentPad*%
%ADD12O,1.700000X1.700000*%
%TD*%
%TA.AperFunction,ComponentPad*%
%ADD13R,1.800000X1.800000*%
%TD*%
%TA.AperFunction,ComponentPad*%
%ADD14C,1.800000*%
%TD*%
%TA.AperFunction,ComponentPad*%
%ADD15R,2.200000X2.200000*%
%TD*%
%TA.AperFunction,ComponentPad*%
%ADD16O,2.200000X2.200000*%
%TD*%
%TA.AperFunction,ComponentPad*%
%ADD17C,5.600000*%
%TD*%
%TA.AperFunction,SMDPad,CuDef*%
%ADD18RoundRect,0.250000X-0.350000X-0.450000X0.350000X-0.450000X0.350000X0.450000X-0.350000X0.450000X0*%
%TD*%
%TA.AperFunction,SMDPad,CuDef*%
%ADD19RoundRect,0.250000X0.350000X0.450000X-0.350000X0.450000X-0.350000X-0.450000X0.350000X-0.450000X0*%
%TD*%
%TA.AperFunction,ComponentPad*%
%ADD20R,1.600000X1.600000*%
%TD*%
%TA.AperFunction,ComponentPad*%
%ADD21O,1.600000X1.600000*%
%TD*%
%TA.AperFunction,ComponentPad*%
%ADD22R,1.650000X1.650000*%
%TD*%
%TA.AperFunction,ComponentPad*%
%ADD23C,1.650000*%
%TD*%
%TA.AperFunction,ComponentPad*%
%ADD24C,1.600000*%
%TD*%
%TA.AperFunction,SMDPad,CuDef*%
%ADD25RoundRect,0.250000X-0.450000X0.350000X-0.450000X-0.350000X0.450000X-0.350000X0.450000X0.350000X0*%
%TD*%
%TA.AperFunction,ComponentPad*%
%ADD26C,1.080000*%
%TD*%
%TA.AperFunction,ComponentPad*%
%ADD27R,1.050000X1.500000*%
%TD*%
%TA.AperFunction,ComponentPad*%
%ADD28O,1.050000X1.500000*%
%TD*%
%TA.AperFunction,SMDPad,CuDef*%
%ADD29RoundRect,0.237500X0.237500X-0.287500X0.237500X0.287500X-0.237500X0.287500X-0.237500X-0.287500X0*%
%TD*%
%TA.AperFunction,ViaPad*%
%ADD30C,1.000000*%
%TD*%
%TA.AperFunction,Conductor*%
%ADD31C,1.000000*%
%TD*%
%TA.AperFunction,Conductor*%
%ADD32C,0.250000*%
%TD*%
%TA.AperFunction,Conductor*%
%ADD33C,0.500000*%
%TD*%
%TA.AperFunction,Conductor*%
%ADD34C,1.500000*%
%TD*%
G04 APERTURE END LIST*
D10*
%TO.P,C7,1*%
%TO.N,V+*%
X157440000Y-122428000D03*
%TO.P,C7,2*%
%TO.N,GND*%
X152440000Y-122428000D03*
%TD*%
D11*
%TO.P,J6,1,Pin_1*%
%TO.N,V+*%
X165359000Y-121920000D03*
D12*
%TO.P,J6,2,Pin_2*%
%TO.N,GND*%
X162819000Y-121920000D03*
%TD*%
D10*
%TO.P,C6,1*%
%TO.N,GND*%
X162266000Y-94742000D03*
%TO.P,C6,2*%
%TO.N,Net-(U1-AREF)*%
X157266000Y-94742000D03*
%TD*%
D13*
%TO.P,D3,1,K*%
%TO.N,GND*%
X134620000Y-117343000D03*
D14*
%TO.P,D3,2,A*%
%TO.N,Net-(D3-A)*%
X134620000Y-119883000D03*
%TD*%
D11*
%TO.P,J9,1,Pin_1*%
%TO.N,/RX*%
X132588000Y-84089000D03*
D12*
%TO.P,J9,2,Pin_2*%
%TO.N,/TX*%
X132588000Y-86629000D03*
%TO.P,J9,3,Pin_3*%
%TO.N,GND*%
X132588000Y-89169000D03*
%TD*%
D10*
%TO.P,C2,1*%
%TO.N,/X1*%
X133948000Y-105124000D03*
%TO.P,C2,2*%
%TO.N,GND*%
X133948000Y-100124000D03*
%TD*%
D11*
%TO.P,J8,1,Pin_1*%
%TO.N,V+*%
X171958000Y-114559000D03*
D12*
%TO.P,J8,2,Pin_2*%
%TO.N,Net-(D1-A)*%
X171958000Y-112019000D03*
%TD*%
D15*
%TO.P,D1,1,K*%
%TO.N,V+*%
X169164000Y-118364000D03*
D16*
%TO.P,D1,2,A*%
%TO.N,Net-(D1-A)*%
X159004000Y-118364000D03*
%TD*%
D17*
%TO.P,REF\u002A\u002A,1*%
%TO.N,N/C*%
X130000000Y-75000000D03*
%TD*%
%TO.P,REF\u002A\u002A,1*%
%TO.N,N/C*%
X127000000Y-121000000D03*
%TD*%
D11*
%TO.P,J1,1,Pin_1*%
%TO.N,/ADC1*%
X163666000Y-91194000D03*
D12*
%TO.P,J1,2,Pin_2*%
%TO.N,Vdd*%
X166206000Y-91194000D03*
%TO.P,J1,3,Pin_3*%
%TO.N,GND*%
X168746000Y-91194000D03*
%TD*%
D18*
%TO.P,R8,1*%
%TO.N,/PWMR*%
X155972000Y-111252000D03*
%TO.P,R8,2*%
%TO.N,Net-(Q4-Pad3)*%
X157972000Y-111252000D03*
%TD*%
D15*
%TO.P,D5,1,K*%
%TO.N,V+*%
X169418000Y-101600000D03*
D16*
%TO.P,D5,2,A*%
%TO.N,Net-(D5-A)*%
X159258000Y-101600000D03*
%TD*%
D13*
%TO.P,D6,1,K*%
%TO.N,GND*%
X167386000Y-95250000D03*
D14*
%TO.P,D6,2,A*%
%TO.N,Net-(D6-A)*%
X167386000Y-97790000D03*
%TD*%
D10*
%TO.P,C1,1*%
%TO.N,/AVCC*%
X157266000Y-98044000D03*
%TO.P,C1,2*%
%TO.N,GND*%
X162266000Y-98044000D03*
%TD*%
D18*
%TO.P,R6,1*%
%TO.N,/PWML*%
X155972000Y-104648000D03*
%TO.P,R6,2*%
%TO.N,Net-(Q3-Pad3)*%
X157972000Y-104648000D03*
%TD*%
D19*
%TO.P,R4,1*%
%TO.N,/LEDR*%
X134694000Y-109990000D03*
%TO.P,R4,2*%
%TO.N,Net-(D3-A)*%
X132694000Y-109990000D03*
%TD*%
D17*
%TO.P,REF\u002A\u002A,1*%
%TO.N,N/C*%
X175000000Y-121000000D03*
%TD*%
D20*
%TO.P,U1,1,~{RESET}/PC6*%
%TO.N,/RESET*%
X144880000Y-79520000D03*
D21*
%TO.P,U1,2,PD0*%
%TO.N,/RX*%
X144880000Y-82060000D03*
%TO.P,U1,3,PD1*%
%TO.N,/TX*%
X144880000Y-84600000D03*
%TO.P,U1,4,PD2*%
%TO.N,unconnected-(U1-PD2-Pad4)*%
X144880000Y-87140000D03*
%TO.P,U1,5,PD3*%
%TO.N,/PWMR*%
X144880000Y-89680000D03*
%TO.P,U1,6,PD4*%
%TO.N,unconnected-(U1-PD4-Pad6)*%
X144880000Y-92220000D03*
%TO.P,U1,7,VCC*%
%TO.N,Vdd*%
X144880000Y-94760000D03*
%TO.P,U1,8,GND*%
%TO.N,GND*%
X144880000Y-97300000D03*
%TO.P,U1,9,XTAL1/PB6*%
%TO.N,/X1*%
X144880000Y-99840000D03*
%TO.P,U1,10,XTAL2/PB7*%
%TO.N,/X2*%
X144880000Y-102380000D03*
%TO.P,U1,11,PD5*%
%TO.N,unconnected-(U1-PD5-Pad11)*%
X144880000Y-104920000D03*
%TO.P,U1,12,PD6*%
%TO.N,/LEDG*%
X144880000Y-107460000D03*
%TO.P,U1,13,PD7*%
%TO.N,/LEDR*%
X144880000Y-110000000D03*
%TO.P,U1,14,PB0*%
%TO.N,unconnected-(U1-PB0-Pad14)*%
X144880000Y-112540000D03*
%TO.P,U1,15,PB1*%
%TO.N,/PWML*%
X152500000Y-112540000D03*
%TO.P,U1,16,PB2*%
%TO.N,unconnected-(U1-PB2-Pad16)*%
X152500000Y-110000000D03*
%TO.P,U1,17,PB3*%
%TO.N,/MOSI*%
X152500000Y-107460000D03*
%TO.P,U1,18,PB4*%
%TO.N,/MISO*%
X152500000Y-104920000D03*
%TO.P,U1,19,PB5*%
%TO.N,/SCK*%
X152500000Y-102380000D03*
%TO.P,U1,20,AVCC*%
%TO.N,/AVCC*%
X152500000Y-99840000D03*
%TO.P,U1,21,AREF*%
%TO.N,Net-(U1-AREF)*%
X152500000Y-97300000D03*
%TO.P,U1,22,GND*%
%TO.N,GND*%
X152500000Y-94760000D03*
%TO.P,U1,23,PC0*%
%TO.N,unconnected-(U1-PC0-Pad23)*%
X152500000Y-92220000D03*
%TO.P,U1,24,PC1*%
%TO.N,/ADC1*%
X152500000Y-89680000D03*
%TO.P,U1,25,PC2*%
%TO.N,/ADC2*%
X152500000Y-87140000D03*
%TO.P,U1,26,PC3*%
%TO.N,/ADC3*%
X152500000Y-84600000D03*
%TO.P,U1,27,PC4*%
%TO.N,/ADC4*%
X152500000Y-82060000D03*
%TO.P,U1,28,PC5*%
%TO.N,/ADC5*%
X152500000Y-79520000D03*
%TD*%
D10*
%TO.P,C3,1*%
%TO.N,/X2*%
X140258000Y-113038000D03*
%TO.P,C3,2*%
%TO.N,GND*%
X135258000Y-113038000D03*
%TD*%
D22*
%TO.P,Q3,1*%
%TO.N,unconnected-(Q3-Pad1)*%
X167894000Y-107950000D03*
D23*
%TO.P,Q3,2*%
%TO.N,Net-(D5-A)*%
X167894000Y-105410000D03*
%TO.P,Q3,3*%
%TO.N,Net-(Q3-Pad3)*%
X160274000Y-105410000D03*
%TO.P,Q3,4*%
%TO.N,GND*%
X160274000Y-107950000D03*
%TD*%
D11*
%TO.P,J5,1,Pin_1*%
%TO.N,/ADC5*%
X163666000Y-69096000D03*
D12*
%TO.P,J5,2,Pin_2*%
%TO.N,Vdd*%
X166206000Y-69096000D03*
%TO.P,J5,3,Pin_3*%
%TO.N,GND*%
X168746000Y-69096000D03*
%TD*%
D24*
%TO.P,R2,1*%
%TO.N,/RESET*%
X136234000Y-76208000D03*
D21*
%TO.P,R2,2*%
%TO.N,Net-(R2-Pad2)*%
X136234000Y-68588000D03*
%TD*%
D10*
%TO.P,C5,1*%
%TO.N,/RESET*%
X140258000Y-79256000D03*
%TO.P,C5,2*%
%TO.N,GND*%
X135258000Y-79256000D03*
%TD*%
D25*
%TO.P,R5,1*%
%TO.N,Vdd*%
X171958000Y-98822000D03*
%TO.P,R5,2*%
%TO.N,Net-(D6-A)*%
X171958000Y-100822000D03*
%TD*%
D10*
%TO.P,C4,1*%
%TO.N,GND*%
X135004000Y-96528000D03*
%TO.P,C4,2*%
%TO.N,Vdd*%
X140004000Y-96528000D03*
%TD*%
D13*
%TO.P,D2,1,K*%
%TO.N,GND*%
X141478000Y-117851000D03*
D14*
%TO.P,D2,2,A*%
%TO.N,Net-(D2-A)*%
X141478000Y-120391000D03*
%TD*%
D24*
%TO.P,R1,1*%
%TO.N,Vdd*%
X136234000Y-89924000D03*
D21*
%TO.P,R1,2*%
%TO.N,/RESET*%
X136234000Y-82304000D03*
%TD*%
D26*
%TO.P,Y1,1*%
%TO.N,/X1*%
X138774000Y-102216000D03*
%TO.P,Y1,2*%
%TO.N,/X2*%
X138774000Y-107096000D03*
%TD*%
D11*
%TO.P,J3,1,Pin_1*%
%TO.N,/ADC3*%
X163666000Y-80018000D03*
D12*
%TO.P,J3,2,Pin_2*%
%TO.N,Vdd*%
X166206000Y-80018000D03*
%TO.P,J3,3,Pin_3*%
%TO.N,GND*%
X168746000Y-80018000D03*
%TD*%
D25*
%TO.P,R7,1*%
%TO.N,Net-(Q3-Pad3)*%
X157988000Y-106950000D03*
%TO.P,R7,2*%
%TO.N,GND*%
X157988000Y-108950000D03*
%TD*%
D15*
%TO.P,D4,1,K*%
%TO.N,Vdd*%
X140044000Y-92972000D03*
D16*
%TO.P,D4,2,A*%
%TO.N,/RESET*%
X140044000Y-82812000D03*
%TD*%
D11*
%TO.P,J7,1,Pin_1*%
%TO.N,V+*%
X171958000Y-107955000D03*
D12*
%TO.P,J7,2,Pin_2*%
%TO.N,Net-(D5-A)*%
X171958000Y-105415000D03*
%TD*%
D27*
%TO.P,U2,1,GND*%
%TO.N,GND*%
X151130000Y-118470000D03*
D28*
%TO.P,U2,2,VI*%
%TO.N,V+*%
X152400000Y-118470000D03*
%TO.P,U2,3,VO*%
%TO.N,Vdd*%
X153670000Y-118470000D03*
%TD*%
D11*
%TO.P,J0,1,Pin_1*%
%TO.N,/MISO*%
X146648000Y-70366000D03*
D12*
%TO.P,J0,2,Pin_2*%
%TO.N,Vdd*%
X146648000Y-72906000D03*
%TO.P,J0,3,Pin_3*%
%TO.N,/SCK*%
X144108000Y-70366000D03*
%TO.P,J0,4,Pin_4*%
%TO.N,/MOSI*%
X144108000Y-72906000D03*
%TO.P,J0,5,Pin_5*%
%TO.N,/RESET*%
X141568000Y-70366000D03*
%TO.P,J0,6,Pin_6*%
%TO.N,GND*%
X141568000Y-72906000D03*
%TD*%
D10*
%TO.P,C8,1*%
%TO.N,Vdd*%
X147320000Y-117388000D03*
%TO.P,C8,2*%
%TO.N,GND*%
X147320000Y-122388000D03*
%TD*%
D25*
%TO.P,R9,1*%
%TO.N,Net-(Q4-Pad3)*%
X157988000Y-113554000D03*
%TO.P,R9,2*%
%TO.N,GND*%
X157988000Y-115554000D03*
%TD*%
D17*
%TO.P,REF\u002A\u002A,1*%
%TO.N,N/C*%
X175000000Y-75000000D03*
%TD*%
D11*
%TO.P,J2,1,Pin_1*%
%TO.N,/ADC2*%
X163666000Y-85606000D03*
D12*
%TO.P,J2,2,Pin_2*%
%TO.N,Vdd*%
X166206000Y-85606000D03*
%TO.P,J2,3,Pin_3*%
%TO.N,GND*%
X168746000Y-85606000D03*
%TD*%
D14*
%TO.P,S2,1,1*%
%TO.N,Net-(R2-Pad2)*%
X151780000Y-70656000D03*
%TO.P,S2,2,2*%
%TO.N,unconnected-(S2-Pad2)*%
X151780000Y-75156000D03*
%TO.P,S2,3,3*%
%TO.N,unconnected-(S2-Pad3)*%
X158280000Y-70656000D03*
%TO.P,S2,4,4*%
%TO.N,GND*%
X158280000Y-75156000D03*
%TD*%
D22*
%TO.P,Q4,1*%
%TO.N,unconnected-(Q4-Pad1)*%
X167894000Y-114554000D03*
D23*
%TO.P,Q4,2*%
%TO.N,Net-(D1-A)*%
X167894000Y-112014000D03*
%TO.P,Q4,3*%
%TO.N,Net-(Q4-Pad3)*%
X160274000Y-112014000D03*
%TO.P,Q4,4*%
%TO.N,GND*%
X160274000Y-114554000D03*
%TD*%
D11*
%TO.P,J4,1,Pin_1*%
%TO.N,/ADC4*%
X163666000Y-74430000D03*
D12*
%TO.P,J4,2,Pin_2*%
%TO.N,Vdd*%
X166206000Y-74430000D03*
%TO.P,J4,3,Pin_3*%
%TO.N,GND*%
X168746000Y-74430000D03*
%TD*%
D19*
%TO.P,R3,1*%
%TO.N,/LEDG*%
X134694000Y-107958000D03*
%TO.P,R3,2*%
%TO.N,Net-(D2-A)*%
X132694000Y-107958000D03*
%TD*%
D29*
%TO.P,FB1,1*%
%TO.N,Vdd*%
X156464000Y-102221000D03*
%TO.P,FB1,2*%
%TO.N,/AVCC*%
X156464000Y-100471000D03*
%TD*%
D30*
%TO.N,Vdd*%
X154686000Y-102362000D03*
%TD*%
D31*
%TO.N,Vdd*%
X156464000Y-102221000D02*
X154827000Y-102221000D01*
D32*
X143531149Y-71636000D02*
X142838000Y-72329149D01*
X146394000Y-93246000D02*
X144880000Y-94760000D01*
X142838000Y-73784000D02*
X146394000Y-77340000D01*
X146648000Y-72906000D02*
X145378000Y-71636000D01*
D33*
X166206000Y-91194000D02*
X171958000Y-96946000D01*
D32*
X145378000Y-71636000D02*
X143531149Y-71636000D01*
D33*
X171958000Y-96946000D02*
X171958000Y-98822000D01*
D32*
X146394000Y-77340000D02*
X146394000Y-93246000D01*
X142838000Y-72329149D02*
X142838000Y-73784000D01*
D31*
X154827000Y-102221000D02*
X154686000Y-102362000D01*
%TO.N,GND*%
X154218000Y-93042000D02*
X160566000Y-93042000D01*
D32*
X157988000Y-115554000D02*
X159274000Y-115554000D01*
X159274000Y-115554000D02*
X160274000Y-114554000D01*
D31*
X160566000Y-93042000D02*
X162266000Y-94742000D01*
D32*
X157988000Y-108950000D02*
X159274000Y-108950000D01*
D31*
X152500000Y-94760000D02*
X154218000Y-93042000D01*
D32*
X159274000Y-108950000D02*
X160274000Y-107950000D01*
%TO.N,/X1*%
X144880000Y-99840000D02*
X141150000Y-99840000D01*
X138774000Y-102216000D02*
X135866000Y-105124000D01*
X135866000Y-105124000D02*
X133948000Y-105124000D01*
X141150000Y-99840000D02*
X138774000Y-102216000D01*
%TO.N,/X2*%
X144880000Y-102380000D02*
X143490000Y-102380000D01*
X138774000Y-107096000D02*
X138774000Y-111554000D01*
X138774000Y-111554000D02*
X140258000Y-113038000D01*
X143490000Y-102380000D02*
X138774000Y-107096000D01*
%TO.N,/RESET*%
X140258000Y-77692000D02*
X140258000Y-79256000D01*
X136234000Y-82304000D02*
X139282000Y-79256000D01*
X136234000Y-76208000D02*
X138774000Y-76208000D01*
X141568000Y-70366000D02*
X138774000Y-73160000D01*
X139282000Y-79256000D02*
X140258000Y-79256000D01*
X140044000Y-79470000D02*
X140258000Y-79256000D01*
X140522000Y-79520000D02*
X140258000Y-79256000D01*
X144880000Y-79520000D02*
X140522000Y-79520000D01*
X140044000Y-82812000D02*
X140044000Y-79470000D01*
X138774000Y-73160000D02*
X138774000Y-76208000D01*
X138774000Y-76208000D02*
X140258000Y-77692000D01*
D31*
%TO.N,V+*%
X152400000Y-118470000D02*
X152400000Y-119634000D01*
X153416000Y-120650000D02*
X155662000Y-120650000D01*
D34*
X165359000Y-120909000D02*
X165359000Y-121920000D01*
D31*
X155662000Y-120650000D02*
X157440000Y-122428000D01*
D34*
X158854213Y-122428000D02*
X161394213Y-119888000D01*
D31*
X152400000Y-119634000D02*
X153416000Y-120650000D01*
D34*
X161394213Y-119888000D02*
X164338000Y-119888000D01*
X157440000Y-122428000D02*
X158854213Y-122428000D01*
X164338000Y-119888000D02*
X165359000Y-120909000D01*
%TO.N,Net-(D1-A)*%
X171953000Y-112014000D02*
X171958000Y-112019000D01*
X167894000Y-112014000D02*
X166624000Y-112014000D01*
X166624000Y-112014000D02*
X160274000Y-118364000D01*
X167894000Y-112014000D02*
X171953000Y-112014000D01*
X160274000Y-118364000D02*
X159004000Y-118364000D01*
D32*
%TO.N,Net-(D2-A)*%
X141478000Y-120391000D02*
X140205208Y-120391000D01*
X133619000Y-113804792D02*
X133619000Y-108883000D01*
X140205208Y-120391000D02*
X133619000Y-113804792D01*
X133619000Y-108883000D02*
X132694000Y-107958000D01*
%TO.N,Net-(D3-A)*%
X134620000Y-119883000D02*
X132694000Y-117957000D01*
X132694000Y-117957000D02*
X132694000Y-109990000D01*
D34*
%TO.N,Net-(D5-A)*%
X167894000Y-105410000D02*
X171953000Y-105410000D01*
X171953000Y-105410000D02*
X171958000Y-105415000D01*
X159258000Y-101600000D02*
X164084000Y-101600000D01*
X164084000Y-101600000D02*
X167894000Y-105410000D01*
D32*
%TO.N,Net-(D6-A)*%
X171958000Y-100822000D02*
X171942000Y-100822000D01*
X168910000Y-97790000D02*
X167386000Y-97790000D01*
X171942000Y-100822000D02*
X168910000Y-97790000D01*
%TO.N,/MISO*%
X150458000Y-100974396D02*
X151220000Y-101736396D01*
X148172000Y-71890000D02*
X148172000Y-75954000D01*
X146648000Y-70366000D02*
X148172000Y-71890000D01*
X148172000Y-75954000D02*
X150458000Y-78240000D01*
X151220000Y-103640000D02*
X152500000Y-104920000D01*
X150458000Y-78240000D02*
X150458000Y-100974396D01*
X151220000Y-101736396D02*
X151220000Y-103640000D01*
%TO.N,/SCK*%
X148680000Y-75574396D02*
X150966000Y-77860396D01*
X150966000Y-77860396D02*
X150966000Y-100846000D01*
X150966000Y-100846000D02*
X152500000Y-102380000D01*
X148172000Y-69350000D02*
X148172000Y-70874000D01*
X144108000Y-70366000D02*
X145632000Y-68842000D01*
X147664000Y-68842000D02*
X148172000Y-69350000D01*
X148172000Y-70874000D02*
X148680000Y-71382000D01*
X148680000Y-71382000D02*
X148680000Y-75574396D01*
X145632000Y-68842000D02*
X147664000Y-68842000D01*
%TO.N,/MOSI*%
X151220000Y-104402000D02*
X151220000Y-106180000D01*
X150710604Y-103892604D02*
X151220000Y-104402000D01*
X145378000Y-74176000D02*
X146394000Y-74176000D01*
X144108000Y-72906000D02*
X145378000Y-74176000D01*
X151220000Y-106180000D02*
X152500000Y-107460000D01*
X146394000Y-74176000D02*
X147664000Y-75446000D01*
X150710604Y-101863396D02*
X150710604Y-103892604D01*
X149950000Y-101102792D02*
X150710604Y-101863396D01*
X147664000Y-75446000D02*
X147664000Y-76208000D01*
X147664000Y-76208000D02*
X149950000Y-78494000D01*
X149950000Y-78494000D02*
X149950000Y-101102792D01*
%TO.N,/PWML*%
X152500000Y-112540000D02*
X155972000Y-109068000D01*
X155972000Y-109068000D02*
X155972000Y-104648000D01*
%TO.N,/PWMR*%
X143755000Y-95225991D02*
X144549009Y-96020000D01*
X155972000Y-111625000D02*
X155972000Y-111252000D01*
X149500000Y-103318396D02*
X150770000Y-104588396D01*
X143755000Y-90805000D02*
X143755000Y-95225991D01*
X145378000Y-96020000D02*
X149500000Y-100142000D01*
X150770000Y-104588396D02*
X150770000Y-106366396D01*
X151728000Y-113800000D02*
X153797000Y-113800000D01*
X150770000Y-106366396D02*
X151220000Y-106816396D01*
X144880000Y-89680000D02*
X143755000Y-90805000D01*
X153797000Y-113800000D02*
X155972000Y-111625000D01*
X151220000Y-113292000D02*
X151728000Y-113800000D01*
X151220000Y-106816396D02*
X151220000Y-113292000D01*
X144549009Y-96020000D02*
X145378000Y-96020000D01*
X149500000Y-100142000D02*
X149500000Y-103318396D01*
%TO.N,Net-(R2-Pad2)*%
X149458000Y-68334000D02*
X151780000Y-70656000D01*
X136234000Y-68588000D02*
X136488000Y-68334000D01*
X136488000Y-68334000D02*
X149458000Y-68334000D01*
%TO.N,/LEDG*%
X139910396Y-114816000D02*
X140806000Y-114816000D01*
X143600000Y-111260000D02*
X143600000Y-108740000D01*
X135980000Y-110885604D02*
X139910396Y-114816000D01*
X142838000Y-112784000D02*
X142838000Y-112022000D01*
X134694000Y-107958000D02*
X135980000Y-109244000D01*
X142838000Y-112022000D02*
X143600000Y-111260000D01*
X143600000Y-108740000D02*
X144880000Y-107460000D01*
X140806000Y-114816000D02*
X142838000Y-112784000D01*
X135980000Y-109244000D02*
X135980000Y-110885604D01*
%TO.N,/LEDR*%
X134694000Y-109990000D02*
X134694000Y-110236000D01*
X134694000Y-110236000D02*
X139782000Y-115324000D01*
X144870000Y-110959009D02*
X144870000Y-110010000D01*
X144870000Y-110010000D02*
X144880000Y-110000000D01*
X143600000Y-112229009D02*
X144870000Y-110959009D01*
X141314000Y-115324000D02*
X143600000Y-113038000D01*
X139782000Y-115324000D02*
X141314000Y-115324000D01*
X143600000Y-113038000D02*
X143600000Y-112229009D01*
%TO.N,/RX*%
X142358000Y-84582000D02*
X133081000Y-84582000D01*
X133081000Y-84582000D02*
X132588000Y-84089000D01*
X144880000Y-82060000D02*
X142358000Y-84582000D01*
%TO.N,/TX*%
X142851000Y-86629000D02*
X132588000Y-86629000D01*
X144880000Y-84600000D02*
X142851000Y-86629000D01*
%TO.N,/ADC1*%
X152500000Y-89808396D02*
X152500000Y-89680000D01*
X154893604Y-92202000D02*
X152500000Y-89808396D01*
X163666000Y-91194000D02*
X162658000Y-92202000D01*
X162658000Y-92202000D02*
X154893604Y-92202000D01*
%TO.N,/ADC2*%
X154776000Y-89416000D02*
X152500000Y-87140000D01*
X161634000Y-87638000D02*
X161634000Y-91448000D01*
X161634000Y-91448000D02*
X161388000Y-91694000D01*
X163666000Y-85606000D02*
X161634000Y-87638000D01*
X155149000Y-91694000D02*
X154776000Y-91321000D01*
X161388000Y-91694000D02*
X155149000Y-91694000D01*
X154776000Y-91321000D02*
X154776000Y-89416000D01*
%TO.N,/ADC3*%
X154522000Y-82578000D02*
X152500000Y-84600000D01*
X154522000Y-79066198D02*
X154522000Y-82578000D01*
X163666000Y-80018000D02*
X161380000Y-77732000D01*
X161380000Y-77732000D02*
X155856198Y-77732000D01*
X155856198Y-77732000D02*
X154522000Y-79066198D01*
%TO.N,/ADC4*%
X160872000Y-75954000D02*
X159602000Y-77224000D01*
X163666000Y-74430000D02*
X160872000Y-74430000D01*
X160872000Y-74430000D02*
X160872000Y-75954000D01*
X155538000Y-77224000D02*
X154014000Y-78748000D01*
X154014000Y-80546000D02*
X152500000Y-82060000D01*
X159602000Y-77224000D02*
X155538000Y-77224000D01*
X154014000Y-78748000D02*
X154014000Y-80546000D01*
%TO.N,/ADC5*%
X160110000Y-72652000D02*
X160110000Y-75954000D01*
X155304000Y-76716000D02*
X152500000Y-79520000D01*
X159348000Y-76716000D02*
X155304000Y-76716000D01*
X160110000Y-75954000D02*
X159348000Y-76716000D01*
X163666000Y-69096000D02*
X160110000Y-72652000D01*
%TO.N,Net-(U1-AREF)*%
X154708000Y-97300000D02*
X157266000Y-94742000D01*
X152500000Y-97300000D02*
X154708000Y-97300000D01*
D31*
%TO.N,/AVCC*%
X157266000Y-99669000D02*
X156464000Y-100471000D01*
D33*
X152518000Y-99822000D02*
X152500000Y-99840000D01*
D31*
X156464000Y-100471000D02*
X155833000Y-99840000D01*
X157266000Y-98044000D02*
X157266000Y-99669000D01*
X155833000Y-99840000D02*
X152500000Y-99840000D01*
D32*
%TO.N,Net-(Q3-Pad3)*%
X157988000Y-106950000D02*
X157988000Y-104664000D01*
X157988000Y-104664000D02*
X157972000Y-104648000D01*
X157972000Y-104648000D02*
X158734000Y-105410000D01*
X158734000Y-105410000D02*
X160274000Y-105410000D01*
%TO.N,Net-(Q4-Pad3)*%
X157972000Y-113538000D02*
X157988000Y-113554000D01*
X157972000Y-111252000D02*
X157972000Y-113538000D01*
X158734000Y-112014000D02*
X160274000Y-112014000D01*
X157972000Y-111252000D02*
X158734000Y-112014000D01*
%TD*%
M02*
