%TF.GenerationSoftware,KiCad,Pcbnew,7.0.7*%
%TF.CreationDate,2023-09-24T14:06:49+13:00*%
%TF.ProjectId,MAIN BOARD,4d41494e-2042-44f4-9152-442e6b696361,rev?*%
%TF.SameCoordinates,Original*%
%TF.FileFunction,Profile,NP*%
%FSLAX46Y46*%
G04 Gerber Fmt 4.6, Leading zero omitted, Abs format (unit mm)*
G04 Created by KiCad (PCBNEW 7.0.7) date 2023-09-24 14:06:49*
%MOMM*%
%LPD*%
G01*
G04 APERTURE LIST*
%TA.AperFunction,Profile*%
%ADD10C,0.100000*%
%TD*%
G04 APERTURE END LIST*
D10*
X124938981Y-78019175D02*
X128158817Y-81645871D01*
X129286000Y-84455000D02*
G75*
G03*
X128158817Y-81645871I-4064000J0D01*
G01*
X127127001Y-69723002D02*
G75*
G03*
X124938982Y-78019175I2920999J-5206998D01*
G01*
X179074923Y-79074923D02*
X176070833Y-82327848D01*
X176070833Y-82327848D02*
G75*
G03*
X175514000Y-84201000I2872167J-1873152D01*
G01*
X170000000Y-65000000D02*
X179074923Y-70925077D01*
X179074923Y-79074923D02*
G75*
G03*
X179074923Y-70925077I-4074923J4074923D01*
G01*
X176824087Y-115579354D02*
X178700000Y-117700000D01*
X175499998Y-112000001D02*
G75*
G03*
X176824087Y-115579354I5500001J1D01*
G01*
X127471132Y-113005152D02*
G75*
G03*
X129300000Y-109000000I-3471132J4005152D01*
G01*
X176071126Y-125955606D02*
G75*
G03*
X178700000Y-117700000I-971126J4855606D01*
G01*
X123940589Y-116920785D02*
G75*
G03*
X126000000Y-125999998I3059411J-4079215D01*
G01*
X135000000Y-65000000D02*
X127127000Y-69723001D01*
X132040000Y-127000000D02*
X169960000Y-127000000D01*
X126000000Y-125999999D02*
X132040000Y-127000000D01*
X129286000Y-84455000D02*
X129300000Y-109000000D01*
X170000000Y-65000000D02*
X135000000Y-65000000D01*
X175499998Y-112000001D02*
X175514000Y-84201000D01*
X127471132Y-113005152D02*
X123940589Y-116920785D01*
X169960000Y-127000000D02*
X176071126Y-125955606D01*
M02*
