M48
; DRILL file {KiCad 7.0.7} date Sun Sep 24 14:06:55 2023
; FORMAT={-:-/ absolute / metric / decimal}
; #@! TF.CreationDate,2023-09-24T14:06:55+13:00
; #@! TF.GenerationSoftware,Kicad,Pcbnew,7.0.7
; #@! TF.FileFunction,Plated,1,2,PTH
FMAT,2
METRIC
; #@! TA.AperFunction,Plated,PTH,ViaDrill
T1C0.400
; #@! TA.AperFunction,Plated,PTH,ComponentDrill
T2C0.680
; #@! TA.AperFunction,Plated,PTH,ComponentDrill
T3C0.750
; #@! TA.AperFunction,Plated,PTH,ComponentDrill
T4C0.800
; #@! TA.AperFunction,Plated,PTH,ComponentDrill
T5C0.900
; #@! TA.AperFunction,Plated,PTH,ComponentDrill
T6C0.950
; #@! TA.AperFunction,Plated,PTH,ComponentDrill
T7C1.000
; #@! TA.AperFunction,Plated,PTH,ComponentDrill
T8C1.100
; #@! TA.AperFunction,Plated,PTH,ComponentDrill
T9C3.200
%
G90
G05
T1
X154.686Y-102.362
T2
X138.774Y-102.216
X138.774Y-107.096
T3
X151.13Y-118.47
X152.4Y-118.47
X153.67Y-118.47
T4
X136.234Y-68.588
X136.234Y-76.208
X136.234Y-82.304
X136.234Y-89.924
X144.88Y-79.52
X144.88Y-82.06
X144.88Y-84.6
X144.88Y-87.14
X144.88Y-89.68
X144.88Y-92.22
X144.88Y-94.76
X144.88Y-97.3
X144.88Y-99.84
X144.88Y-102.38
X144.88Y-104.92
X144.88Y-107.46
X144.88Y-110.0
X144.88Y-112.54
X152.5Y-79.52
X152.5Y-82.06
X152.5Y-84.6
X152.5Y-87.14
X152.5Y-89.68
X152.5Y-92.22
X152.5Y-94.76
X152.5Y-97.3
X152.5Y-99.84
X152.5Y-102.38
X152.5Y-104.92
X152.5Y-107.46
X152.5Y-110.0
X152.5Y-112.54
T5
X134.62Y-117.343
X134.62Y-119.883
X141.478Y-117.851
X141.478Y-120.391
X167.386Y-95.25
X167.386Y-97.79
T6
X160.274Y-105.41
X160.274Y-107.95
X160.274Y-112.014
X160.274Y-114.554
X167.894Y-105.41
X167.894Y-107.95
X167.894Y-112.014
X167.894Y-114.554
T7
X132.588Y-84.089
X132.588Y-86.629
X132.588Y-89.169
X133.948Y-100.124
X133.948Y-105.124
X135.004Y-96.528
X135.258Y-79.256
X135.258Y-113.038
X140.004Y-96.528
X140.258Y-79.256
X140.258Y-113.038
X141.568Y-70.366
X141.568Y-72.906
X144.108Y-70.366
X144.108Y-72.906
X146.648Y-70.366
X146.648Y-72.906
X147.32Y-117.388
X147.32Y-122.388
X151.78Y-70.656
X151.78Y-75.156
X152.44Y-122.428
X157.266Y-94.742
X157.266Y-98.044
X157.44Y-122.428
X158.28Y-70.656
X158.28Y-75.156
X162.266Y-94.742
X162.266Y-98.044
X162.819Y-121.92
X163.666Y-69.096
X163.666Y-74.43
X163.666Y-80.018
X163.666Y-85.606
X163.666Y-91.194
X165.359Y-121.92
X166.206Y-69.096
X166.206Y-74.43
X166.206Y-80.018
X166.206Y-85.606
X166.206Y-91.194
X168.746Y-69.096
X168.746Y-74.43
X168.746Y-80.018
X168.746Y-85.606
X168.746Y-91.194
X171.958Y-105.415
X171.958Y-107.955
X171.958Y-112.019
X171.958Y-114.559
T8
X140.044Y-82.812
X140.044Y-92.972
X159.004Y-118.364
X159.258Y-101.6
X169.164Y-118.364
X169.418Y-101.6
T9
X127.0Y-121.0
X130.0Y-75.0
X175.0Y-75.0
X175.0Y-121.0
T0
M30
